<?xml version="1.0" encoding="UTF-8"?>
<svg id="Capa_1" xmlns="http://www.w3.org/2000/svg" version="1.1" viewBox="0 0 250 250">
  <!-- Generator: Adobe Illustrator 29.4.0, SVG Export Plug-In . SVG Version: 2.1.0 Build 152)  -->
  <defs>
    <style>
      .st0 {
        fill: none;
        stroke: #000;
        stroke-linecap: round;
        stroke-miterlimit: 10;
        stroke-width: 3px;
      }

      .st1 {
        fill: #e1ff2d;
      }
    </style>
  </defs>
  <circle class="st1" cx="125" cy="125" r="119"/>
  <path d="M102.69,54.48c13.28-.62,26.56-.99,39.86-1.38,6.63-.25,13.52-.11,20.23,1.41,14.33,2.85,25.93,13.13,28.27,27.96,1.16,7,1.23,14.03-.71,20.93-2.94,11.69-13.86,17.93-24.79,20.62-.08.03-.69.18-.78.21,1.04-.24,1.44-1.62.66-2.36-.2-.23-.66-.4-.79-.4.18.03,1.4.18,1.61.23,7.92,1.17,15.95,4.16,21.5,10.26,11.43,12.7,11.45,36.2,2.05,49.92-8.37,11.83-23.68,15.24-37.26,15.16-16.66-.27-33.23-.86-49.87-1.58,13.28-.62,26.56-1,39.86-1.38,18.56.13,41.38-2.3,47.2-23.23,3.02-11.56,2.2-25.87-6.04-35.16-4.73-5.21-12.31-7.68-19.46-8.61-1.02-.1-2.03-.49-2.74-1.21-2.57-2.63-.95-6.78,2.64-7.26,6.21-1.67,12.75-4.09,16.97-9.01,8.85-10.68,7.14-33.07-2.84-42.67-9.33-9.17-23.02-11-35.72-11.09-13.28-.38-26.56-.76-39.86-1.38h.01Z"/>
  <line class="st0" x1="102.71" y1="81.3" x2="102.71" y2="168.69"/>
  <line class="st0" x1="117.18" y1="100.05" x2="117.18" y2="149.75"/>
  <line class="st0" x1="146.11" y1="111.48" x2="146.11" y2="138.51"/>
  <line class="st0" x1="59.09" y1="111.48" x2="59.09" y2="138.51"/>
  <line class="st0" x1="88.04" y1="100.05" x2="88.04" y2="149.94"/>
  <line class="st0" x1="73.56" y1="94.6" x2="73.56" y2="155.38"/>
  <line class="st0" x1="131.64" y1="94.6" x2="131.64" y2="155.38"/>
</svg>