<?xml version="1.0" encoding="UTF-8"?>
<svg id="Capa_1" data-name="Capa 1" xmlns="http://www.w3.org/2000/svg" viewBox="0 0 250 250">
  <defs>
    <style>
      .cls-1 {
        fill: none;
        stroke: #000;
        stroke-linecap: round;
        stroke-miterlimit: 10;
        stroke-width: 3px;
      }

      .cls-2 {
        fill: #e1ff2d;
      }
    </style>
  </defs>
  <rect class="cls-2" x="-8.44" y="-5.53" width="273.48" height="271.78"/>
  <path d="M110.03,75.05c9.41-.44,18.82-.7,28.24-.98,4.7-.18,9.58-.08,14.33,1,10.15,2.02,18.37,9.3,20.03,19.81.82,4.96.87,9.94-.5,14.83-2.08,8.28-9.82,12.7-17.56,14.61-.06.02-.49.13-.55.15.74-.17,1.02-1.15.47-1.67-.14-.16-.47-.28-.56-.28.13.02.99.13,1.14.16,5.61.83,11.3,2.95,15.23,7.27,8.1,9,8.11,25.65,1.45,35.37-5.93,8.38-16.78,10.8-26.4,10.74-11.8-.19-23.54-.61-35.33-1.12,9.41-.44,18.82-.71,28.24-.98,13.15.09,29.32-1.63,33.44-16.46,2.14-8.19,1.56-18.33-4.28-24.91-3.35-3.69-8.72-5.44-13.79-6.1-.72-.07-1.44-.35-1.94-.86-1.82-1.86-.67-4.8,1.87-5.14,4.4-1.18,9.03-2.9,12.02-6.38,6.27-7.57,5.06-23.43-2.01-30.23-6.61-6.5-16.31-7.79-25.31-7.86-9.41-.27-18.82-.54-28.24-.98h0Z"/>
  <line class="cls-1" x1="110.04" y1="94.05" x2="110.04" y2="155.96"/>
  <line class="cls-1" x1="120.29" y1="107.33" x2="120.29" y2="142.54"/>
  <line class="cls-1" x1="140.79" y1="115.43" x2="140.79" y2="134.58"/>
  <line class="cls-1" x1="79.14" y1="115.43" x2="79.14" y2="134.58"/>
  <line class="cls-1" x1="99.65" y1="107.33" x2="99.65" y2="142.68"/>
  <line class="cls-1" x1="89.39" y1="103.47" x2="89.39" y2="146.53"/>
  <line class="cls-1" x1="130.54" y1="103.47" x2="130.54" y2="146.53"/>
</svg>