<?xml version="1.0" encoding="UTF-8"?>
<svg id="Capa_1" data-name="Capa 1" xmlns="http://www.w3.org/2000/svg" viewBox="0 0 250 250">
  <g>
    <path d="M58.78,89.28c5.17-.24,10.35-.39,15.52-.54,2.58-.1,5.26-.04,7.88.55,5.58,1.11,10.1,5.11,11.01,10.89.45,2.72.48,5.47-.27,8.15-1.15,4.55-5.4,6.98-9.65,8.03-.04.01-.27.07-.3.08.41-.09.56-.63.26-.92-.07-.09-.26-.16-.31-.16.07.01.54.07.63.09,3.08.46,6.21,1.62,8.37,4,4.45,4.95,4.46,14.1.8,19.44-3.26,4.61-9.22,5.93-14.51,5.9-6.49-.11-12.94-.33-19.42-.61,5.17-.24,10.35-.39,15.52-.54,7.23.05,16.11-.9,18.38-9.04,1.17-4.5.86-10.08-2.35-13.69-1.84-2.03-4.79-2.99-7.58-3.35-.39-.04-.79-.19-1.07-.47-1-1.02-.37-2.64,1.03-2.82,2.42-.65,4.97-1.6,6.6-3.51,3.45-4.16,2.78-12.88-1.1-16.61-3.63-3.57-8.97-4.28-13.91-4.32-5.17-.15-10.35-.29-15.52-.54h0Z"/>
    <path d="M58.78,134.58c-.46,0-.82-.37-.82-.82v-34.03c0-.46.37-.82.82-.82s.82.37.82.82v34.03c0,.46-.37.82-.82.82Z"/>
    <path d="M64.42,127.2c-.46,0-.82-.37-.82-.82v-19.35c0-.46.37-.82.82-.82s.82.37.82.82v19.35c0,.46-.37.82-.82.82Z"/>
    <path d="M75.68,122.82c-.46,0-.82-.37-.82-.82v-10.53c0-.46.37-.82.82-.82s.82.37.82.82v10.53c0,.46-.37.82-.82.82Z"/>
    <path d="M41.8,122.82c-.46,0-.82-.37-.82-.82v-10.53c0-.46.37-.82.82-.82s.82.37.82.82v10.53c0,.46-.37.82-.82.82Z"/>
    <path d="M53.07,127.28c-.46,0-.82-.37-.82-.82v-19.43c0-.46.37-.82.82-.82s.82.37.82.82v19.43c0,.46-.37.82-.82.82Z"/>
    <path d="M47.44,129.4c-.46,0-.82-.37-.82-.82v-23.67c0-.46.37-.82.82-.82s.82.37.82.82v23.67c0,.46-.37.82-.82.82Z"/>
    <path d="M70.05,129.4c-.46,0-.82-.37-.82-.82v-23.67c0-.46.37-.82.82-.82s.82.37.82.82v23.67c0,.46-.37.82-.82.82Z"/>
  </g>
  <g>
    <path d="M115.41,145.37c-1.88,0-3.54-.29-4.97-.87-1.43-.58-2.62-1.41-3.58-2.5-.96-1.08-1.68-2.39-2.17-3.91-.49-1.52-.73-3.2-.73-5.02s.25-3.63.75-5.23c.5-1.6,1.23-2.99,2.17-4.17.94-1.18,2.1-2.09,3.46-2.73,1.37-.64,2.94-.97,4.74-.97,1.54,0,2.94.25,4.19.75,1.26.5,2.33,1.3,3.23,2.38.9,1.08,1.59,2.45,2.07,4.1.49,1.65.68,3.6.59,5.87l-18.99.14v-2.69l16.82-.09-1.18,2.03c.12-2.1-.09-3.85-.64-5.23-.55-1.38-1.35-2.43-2.4-3.13-1.05-.71-2.3-1.06-3.75-1.06-1.54,0-2.88.4-4.03,1.2-1.15.8-2.03,1.94-2.66,3.42-.63,1.48-.94,3.28-.94,5.42,0,2.95.67,5.24,2,6.86,1.33,1.62,3.37,2.43,6.1,2.43,1.04,0,1.95-.12,2.73-.35.79-.24,1.45-.57,2-1.01.55-.44,1-.96,1.37-1.55.36-.6.64-1.24.82-1.93l3.11.71c-.31,1.13-.76,2.14-1.34,3.01-.58.88-1.3,1.63-2.14,2.26-.85.63-1.81,1.1-2.9,1.41-1.08.31-2.33.47-3.75.47Z"/>
    <path d="M137.36,145.37c-1.32,0-2.51-.24-3.58-.73-1.07-.49-1.91-1.25-2.52-2.29-.61-1.04-.92-2.34-.92-3.91,0-1.1.19-2.08.57-2.94s.99-1.62,1.84-2.26c.85-.64,1.98-1.19,3.39-1.63,1.41-.44,3.16-.78,5.23-1.04,1.22-.16,2.21-.32,2.97-.5.75-.17,1.3-.44,1.65-.8.35-.36.52-.92.52-1.67,0-1.26-.43-2.34-1.3-3.25-.86-.91-2.24-1.37-4.12-1.37-.94,0-1.9.17-2.87.49-.97.33-1.84.88-2.59,1.65-.75.77-1.22,1.86-1.41,3.27l-3.25-1.13c.16-1.07.52-2.06,1.08-2.97.57-.91,1.28-1.69,2.14-2.33.86-.64,1.89-1.14,3.09-1.48,1.19-.35,2.5-.52,3.91-.52,1.98,0,3.62.33,4.92.99,1.3.66,2.28,1.67,2.92,3.04.64,1.37.97,3.12.97,5.25v5.75c0,.97.02,2.03.07,3.18.05,1.15.11,2.29.19,3.44.08,1.15.18,2.21.31,3.18h-3.25c-.13-1.07-.22-2.1-.28-3.11-.06-1-.09-2.01-.09-3.02h-.57c-.47,1.16-1.09,2.26-1.86,3.3-.77,1.04-1.74,1.86-2.9,2.47s-2.58.92-4.24.92ZM138.12,142.4c.72,0,1.45-.11,2.19-.33.74-.22,1.48-.6,2.24-1.13s1.48-1.23,2.17-2.1c.69-.86,1.32-1.91,1.88-3.13l-.05-4.95,1.41.24c-.53.53-1.22.94-2.07,1.2-.85.27-1.81.48-2.9.64-1.08.16-2.16.33-3.23.52-1.07.19-2.06.46-2.97.83s-1.64.86-2.19,1.51c-.55.64-.82,1.53-.82,2.66,0,1.35.41,2.36,1.22,3.04.82.68,1.85,1.01,3.11,1.01Z"/>
    <path d="M164.64,145.27c-2.04,0-3.58-.58-4.62-1.74-1.04-1.16-1.55-2.89-1.55-5.18v-14.79h-3.72l.05-2.97h2.26c.69-.03,1.2-.18,1.53-.45.33-.27.53-.71.59-1.34l.42-3.72h2.26v5.47h7.16v3.06h-7.16v14.75c0,1.32.29,2.25.87,2.8.58.55,1.42.82,2.52.82.6,0,1.23-.08,1.91-.24.67-.16,1.34-.5,2-1.04v3.63c-.85.35-1.66.59-2.43.73-.77.14-1.47.21-2.1.21Z"/>
    <path d="M174.67,144.8v-32.79h3.49v32.79h-3.49Z"/>
    <path d="M194.23,152.86c-1.29,0-2.54-.16-3.77-.47-1.22-.31-2.33-.78-3.32-1.39s-1.78-1.44-2.38-2.47l2.21-2.21c.63,1.07,1.56,1.89,2.8,2.47,1.24.58,2.66.87,4.26.87,1.82,0,3.33-.41,4.52-1.22,1.19-.82,2.1-2.07,2.71-3.75.61-1.68.92-3.78.92-6.29l.61-5.14h-.9c-.35,2.39-.9,4.27-1.67,5.65-.77,1.38-1.69,2.37-2.76,2.97-1.07.6-2.31.89-3.72.89-1.73,0-3.2-.44-4.4-1.32-1.21-.88-2.13-2.19-2.76-3.93-.63-1.74-.94-3.84-.94-6.29v-10.69h3.44v10.04c0,3.08.47,5.35,1.41,6.81.94,1.46,2.34,2.19,4.19,2.19,1,0,1.91-.24,2.71-.71.8-.47,1.51-1.19,2.12-2.17.61-.97,1.09-2.21,1.44-3.7s.57-3.26.66-5.3v-7.16h3.53v18.09c0,1.85-.13,3.54-.4,5.06-.27,1.52-.7,2.86-1.3,4s-1.33,2.1-2.19,2.87c-.86.77-1.88,1.34-3.04,1.72-1.16.38-2.5.57-4,.57Z"/>
  </g>
</svg>