<?xml version="1.0" encoding="UTF-8"?>
<svg id="Capa_1" data-name="Capa 1" xmlns="http://www.w3.org/2000/svg" viewBox="0 0 98.89 113.73">
  <defs>
    <style>
      .cls-1 {
        fill: #fff;
      }
    </style>
  </defs>
  <g>
    <path class="cls-1" d="M37.68.72c6.41-.3,12.83-.48,19.24-.67,3.2-.12,6.53-.05,9.77.68,6.92,1.38,12.52,6.34,13.65,13.5.56,3.38.59,6.78-.34,10.11-1.42,5.65-6.69,8.65-11.96,9.96-.04.01-.34.09-.38.1.51-.11.7-.78.32-1.14-.09-.11-.32-.19-.38-.19.09.02.67.09.78.11,3.82.57,7.7,2.01,10.38,4.96,5.52,6.14,5.53,17.48.99,24.11-4.04,5.71-11.44,7.36-17.99,7.32-8.04-.13-16.04-.41-24.07-.76,6.41-.3,12.83-.48,19.24-.67,8.96.06,19.98-1.11,22.79-11.22,1.46-5.58,1.06-12.49-2.92-16.98-2.28-2.51-5.94-3.71-9.4-4.15-.49-.04-.98-.24-1.32-.59-1.24-1.27-.46-3.27,1.27-3.5,3-.81,6.16-1.98,8.19-4.35,4.27-5.16,3.45-15.97-1.37-20.6-4.51-4.43-11.12-5.31-17.25-5.36-6.41-.19-12.83-.37-19.24-.67h0Z"/>
    <path class="cls-1" d="M37.68,56.88c-.56,0-1.02-.46-1.02-1.02V13.66c0-.56.46-1.02,1.02-1.02s1.02.46,1.02,1.02v42.2c0,.56-.46,1.02-1.02,1.02Z"/>
    <path class="cls-1" d="M44.67,47.74c-.56,0-1.02-.46-1.02-1.02v-24c0-.56.46-1.02,1.02-1.02s1.02.46,1.02,1.02v24c0,.56-.46,1.02-1.02,1.02Z"/>
    <path class="cls-1" d="M58.64,42.31c-.56,0-1.02-.46-1.02-1.02v-13.05c0-.56.46-1.02,1.02-1.02s1.02.46,1.02,1.02v13.05c0,.56-.46,1.02-1.02,1.02Z"/>
    <path class="cls-1" d="M16.63,42.31c-.56,0-1.02-.46-1.02-1.02v-13.05c0-.56.46-1.02,1.02-1.02s1.02.46,1.02,1.02v13.05c0,.56-.46,1.02-1.02,1.02Z"/>
    <path class="cls-1" d="M30.6,47.83c-.56,0-1.02-.46-1.02-1.02v-24.09c0-.56.46-1.02,1.02-1.02s1.02.46,1.02,1.02v24.09c0,.56-.46,1.02-1.02,1.02Z"/>
    <path class="cls-1" d="M23.61,50.46c-.56,0-1.02-.46-1.02-1.02v-29.35c0-.56.46-1.02,1.02-1.02s1.02.46,1.02,1.02v29.35c0,.56-.46,1.02-1.02,1.02Z"/>
    <path class="cls-1" d="M51.65,50.46c-.56,0-1.02-.46-1.02-1.02v-29.35c0-.56.46-1.02,1.02-1.02s1.02.46,1.02,1.02v29.35c0,.56-.46,1.02-1.02,1.02Z"/>
  </g>
  <g>
    <path class="cls-1" d="M0,107.67v-22.72h8.71c1.31,0,2.5.12,3.56.36,1.07.24,1.98.6,2.74,1.08.76.48,1.34,1.1,1.76,1.84.41.75.62,1.65.62,2.7,0,.87-.18,1.64-.55,2.29s-.92,1.2-1.67,1.63c-.75.44-1.75.74-3.01.9v.48c2.11.18,3.66.74,4.65,1.67s1.48,2.19,1.48,3.77c0,1.31-.32,2.4-.95,3.29-.63.88-1.59,1.55-2.87,2.01-1.29.46-2.93.69-4.92.69H0ZM3.65,94.8h3.82c2.11,0,3.68-.29,4.7-.86s1.53-1.43,1.53-2.58-.45-1.99-1.34-2.53c-.9-.54-2.25-.81-4.06-.81H3.65v6.78ZM3.65,104.57h6.09c1.65,0,2.87-.27,3.67-.81.79-.54,1.19-1.37,1.19-2.5,0-1.33-.54-2.32-1.62-2.96s-2.7-.96-4.85-.96H3.66v7.23h0Z"/>
    <path class="cls-1" d="M30.6,108.12c-1.42,0-2.69-.21-3.79-.62-1.1-.41-2.03-1.02-2.79-1.81s-1.33-1.74-1.7-2.86c-.38-1.11-.57-2.38-.57-3.8s.19-2.7.57-3.89.93-2.22,1.65-3.08,1.62-1.53,2.7-2.01c1.08-.48,2.28-.72,3.61-.72,1.26,0,2.39.21,3.39.62,1,.41,1.84,1.03,2.51,1.86.68.83,1.19,1.86,1.53,3.11s.48,2.71.41,4.39l-14.01.14v-2.31l11.81-.14-1.31,1.41c.14-1.35.02-2.48-.34-3.37-.37-.9-.9-1.57-1.58-2.01-.69-.45-1.49-.67-2.41-.67-.99,0-1.85.26-2.6.78s-1.33,1.27-1.74,2.27-.62,2.19-.62,3.56c0,2.09.45,3.65,1.36,4.7.91,1.04,2.21,1.57,3.91,1.57.71,0,1.32-.09,1.82-.26s.93-.41,1.29-.71.64-.64.86-1.03.4-.8.53-1.24l3.27.72c-.23.85-.55,1.61-.95,2.27-.4.67-.93,1.23-1.58,1.7s-1.41.83-2.27,1.07-1.85.36-2.98.36h.02Z"/>
    <path class="cls-1" d="M46.61,108.12c-1.01,0-1.9-.2-2.67-.58-.77-.39-1.38-.96-1.84-1.7-.46-.75-.69-1.67-.69-2.77,0-.92.17-1.7.5-2.36.33-.65.84-1.2,1.53-1.64s1.55-.8,2.6-1.1c1.04-.3,2.29-.54,3.73-.72.83-.14,1.49-.26,2-.36.5-.1.88-.29,1.12-.55.24-.26.36-.65.36-1.15,0-.78-.28-1.45-.83-2.01s-1.42-.84-2.62-.84c-.67,0-1.31.12-1.94.34-.63.23-1.19.6-1.67,1.12-.48.52-.8,1.21-.96,2.08l-3.37-1.1c.23-.85.57-1.61,1.02-2.27.45-.67,1.01-1.24,1.69-1.72s1.47-.84,2.39-1.08,1.9-.36,2.96-.36c1.58,0,2.9.26,3.94.77,1.04.52,1.82,1.32,2.32,2.41s.76,2.48.76,4.18v3.65c.02.76.05,1.56.07,2.41s.07,1.69.14,2.51.15,1.63.24,2.41h-3.41c-.07-.69-.13-1.41-.19-2.15-.06-.75-.11-1.49-.16-2.22h-.48c-.34.85-.81,1.65-1.39,2.39-.59.75-1.3,1.34-2.15,1.77-.85.44-1.85.65-3,.65h0ZM47.91,105.26c.46,0,.94-.09,1.44-.26s1-.42,1.48-.76c.48-.33.94-.77,1.38-1.31s.8-1.17,1.1-1.88v-3.24l.86.17c-.37.34-.85.6-1.45.77-.6.17-1.24.32-1.93.43-.69.12-1.37.23-2.05.34-.68.12-1.3.28-1.86.5s-1.01.53-1.34.93-.5.95-.5,1.63c0,.85.26,1.5.79,1.96s1.22.69,2.06.69c0,0,.02.03.02.03Z"/>
    <path class="cls-1" d="M67.88,108.05c-1.77,0-3.08-.48-3.92-1.43-.85-.95-1.27-2.44-1.27-4.46v-9.33h-2.65l.03-3.06h1.72c.6,0,1.04-.1,1.33-.29.29-.19.48-.56.57-1.08l.34-2.62h2.24v3.99h4.92v3.13h-4.92v9.16c0,.87.21,1.51.62,1.91s1.01.6,1.79.6c.46,0,.91-.06,1.34-.17.44-.12.86-.32,1.27-.62v3.65c-.67.23-1.29.39-1.88.48-.58.09-1.1.14-1.53.14h0Z"/>
    <path class="cls-1" d="M75,107.67v-24.27h3.72v24.27h-3.72Z"/>
    <path class="cls-1" d="M90.21,113.73c-.94,0-1.87-.1-2.79-.31-.92-.21-1.77-.51-2.55-.91s-1.42-.91-1.93-1.53l1.51-2.96c.6.78,1.39,1.37,2.39,1.77,1,.4,2.06.6,3.18.6,1.29,0,2.35-.27,3.18-.81s1.48-1.38,1.93-2.51.68-2.53.71-4.18l.31-3.48h-.69c-.23,1.63-.62,2.94-1.17,3.92-.55.99-1.22,1.7-2.01,2.13-.79.44-1.7.65-2.74.65-1.31,0-2.4-.33-3.29-.98-.88-.65-1.55-1.63-2-2.93-.45-1.3-.67-2.87-.67-4.73v-7.71h3.72v6.85c0,2.2.29,3.81.86,4.82.57,1.01,1.46,1.51,2.65,1.51.62,0,1.19-.16,1.7-.48.52-.32.96-.8,1.34-1.45s.68-1.43.89-2.38c.22-.94.35-2.03.4-3.27v-5.61h3.75v13.29c0,1.38-.11,2.64-.34,3.79s-.58,2.15-1.05,3-1.05,1.57-1.74,2.15c-.69.59-1.5,1.02-2.43,1.31s-1.98.43-3.15.43h.03Z"/>
  </g>
</svg>