<?xml version="1.0" encoding="UTF-8"?>
<svg id="Capa_1" xmlns="http://www.w3.org/2000/svg" version="1.1" viewBox="0 0 84.8 98.3">
  <!-- Generator: Adobe Illustrator 29.4.0, SVG Export Plug-In . SVG Version: 2.1.0 Build 152)  -->
  <defs>
    <style>
      .st0 {
        fill: none;
        stroke: #fff;
        stroke-miterlimit: 10;
        stroke-width: 3px;
      }
    </style>
  </defs>
  <path class="st0" d="M80.36,29.8c1.34-.33,2.26,1.31,1.28,2.28l-1,.99-12.19,12.11-20.62,20.49-.55.54-3.21,3.19-11.42,11.34-3.99,3.96-10.21,10.14c-1.16,1.15-2.99-.34-2.1-1.7l5.68-8.7,9.62-14.76,10.3-15.78c.66-1.02-.23-2.32-1.42-2.07l-9.01,1.9-17.57,3.7-9.58,2.01c-1.32.28-2.19-1.33-1.25-2.29h0l7.36-7.39,2.96-2.97,17.58-17.67,12.2-12.26,1.77-1.78,11.57-11.63c1.13-1.14,2.96.29,2.13,1.66l-6.06,10.01-7.14,11.78-6.45,10.66c-.62,1.03.31,2.31,1.48,2.02l7.4-1.82,20.07-4.92,12.24-3.01.11-.02Z"/>
</svg>