<?xml version="1.0" encoding="UTF-8"?>
<svg id="Capa_1" data-name="Capa 1" xmlns="http://www.w3.org/2000/svg" viewBox="0 0 84.8 98.3">
  <defs>
    <style>
      .cls-1 {
        fill: none;
        stroke: #010101;
        stroke-miterlimit: 10;
        stroke-width: 2px;
      }
    </style>
  </defs>
  <path class="cls-1" d="M82.04,28.95c1.4-.34,2.36,1.37,1.34,2.38l-1.04,1.03-12.73,12.64-21.53,21.4-.57.56-3.35,3.33-11.92,11.84-4.17,4.14-10.66,10.59c-1.21,1.2-3.12-.36-2.19-1.78l5.93-9.08,10.05-15.41,10.75-16.48c.69-1.06-.24-2.42-1.48-2.16l-9.41,1.98-18.35,3.86-10,2.1c-1.38.29-2.29-1.39-1.3-2.39h0s7.68-7.72,7.68-7.72l3.09-3.1,18.36-18.45,12.74-12.8,1.85-1.86L57.21,1.43c1.18-1.19,3.09.3,2.22,1.73l-6.33,10.45-7.46,12.3-6.74,11.13c-.65,1.08.32,2.41,1.55,2.11l7.73-1.9,20.96-5.14,12.78-3.14.13-.03Z"/>
</svg>